<svg xmlns="http://www.w3.org/2000/svg" viewBox="0 0 2981 1028" width="2981" height="1028">
<title>Flavia — Hair Studio</title>
<defs>
<linearGradient id="foil" gradientUnits="userSpaceOnUse" x1="176" y1="270.4" x2="2759.2" y2="550.4"><stop offset="0" stop-color="#E9CD87"></stop><stop offset="0.5" stop-color="#C8A04B"></stop><stop offset="1" stop-color="#9A7330"></stop></linearGradient>
<linearGradient id="foilIcon" gradientUnits="userSpaceOnUse" x1="0" y1="0" x2="286" y2="220"><stop offset="0" stop-color="#E9CD87"></stop><stop offset="0.5" stop-color="#C8A04B"></stop><stop offset="1" stop-color="#9A7330"></stop></linearGradient>
</defs>
<g transform="translate(176 190.4)" fill="url(#foil)">
<path transform="translate(0 580)" d="M310.40 80.80L310.40 80.80Q222.40 80.80 157.20 53.60Q92 26.40 56.40-21.20Q20.80-68.80 20.80-129.60L20.80-129.60Q20.80-179.20 38.40-220Q56-260.80 85.20-288Q114.40-315.20 149.60-324L149.60-324Q155.20-324.80 155.20-320L155.20-320Q155.20-316 151.20-313.60L151.20-313.60Q109.60-288.80 87.60-242.40Q65.60-196 65.60-139.20L65.60-139.20Q65.60-77.60 97.60-33.20Q129.60 11.20 185.20 34.80Q240.80 58.40 310.40 58.40L310.40 58.40Q370.40 58.40 424.40 37.20Q478.40 16 524-20.80Q569.60-57.60 606-104.40Q642.40-151.20 667.20-202.40L667.20-202.40Q672.80-214.40 678.40-225.60Q684-236.80 689.60-248L689.60-248Q670.40-248.80 654.80-249.60Q639.20-250.40 633.60-250.40L633.60-250.40Q612-250.40 587.60-247.60Q563.20-244.80 542-236.80Q520.80-228.80 507.20-212L507.20-212Q501.60-206.40 500.40-203.20Q499.20-200 496.80-200L496.80-200Q493.60-200 491.20-205.20Q488.80-210.40 492-216.80L492-216.80Q510.40-257.60 544-272.40Q577.60-287.20 619.20-287.20L619.20-287.20Q628-287.20 652.40-284.40Q676.80-281.60 704-278.40L704-278.40Q739.20-349.60 768.40-407.20Q797.60-464.80 823.20-503.20L823.20-503.20Q765.60-522.40 700.80-537.20Q636-552 561.60-552L561.60-552Q506.40-552 461.60-536.80Q416.80-521.60 385.20-496Q353.60-470.40 336.80-439.20Q320-408 320-376.80L320-376.80Q320-341.60 333.60-320.80Q347.20-300 369.20-290.80Q391.20-281.60 414.40-281.60L414.40-281.60Q448.80-281.60 473.20-298.40Q497.60-315.20 512-336.40Q526.40-357.60 529.60-371.20L529.60-371.20Q532.80-384 539.20-384L539.20-384Q548.80-384 547.20-372.80L547.20-372.80Q542.40-337.60 522.40-312Q502.40-286.40 473.60-273.20Q444.80-260 412.80-260L412.80-260Q380-260 349.60-276Q319.20-292 300-322.40Q280.80-352.80 280.80-396L280.80-396Q280.80-431.20 296.40-466Q312-500.80 343.60-530Q375.20-559.20 424-576.80Q472.80-594.40 539.20-594.40L539.20-594.40Q586.40-594.40 636-583.60Q685.60-572.80 736.40-556.40Q787.20-540 836.80-522.40L836.80-522.40Q853.60-544 868.80-555.60Q884-567.20 899.20-567.20L899.20-567.20Q905.60-567.20 908-564.40Q910.40-561.60 910.40-559.20L910.40-559.20Q910.40-556 908-552Q905.60-548 899.20-548L899.20-548Q872.80-548 849.60-518.40L849.60-518.40Q907.20-499.20 960.40-484.40Q1013.60-469.60 1059.20-469.60L1059.20-469.60Q1094.40-469.60 1105.60-477.20Q1116.80-484.80 1116.80-498.40L1116.80-498.40Q1116.80-507.20 1122.40-507.20L1122.40-507.20Q1126.40-507.20 1130-502Q1133.60-496.80 1133.60-489.60L1133.60-489.60Q1133.60-470.40 1112.40-458.40Q1091.20-446.40 1053.60-446.40L1053.60-446.40Q1004-446.40 950.40-462.80Q896.80-479.20 836.80-499.20L836.80-499.20Q815.20-463.20 794.40-405.20Q773.60-347.20 745.60-274.40L745.60-274.40Q780-271.20 818.40-269.20Q856.80-267.20 880.80-267.20L880.80-267.20Q888.80-267.20 888.80-262.40L888.80-262.40Q888.80-256 870.40-251.20L870.40-251.20Q858.40-248 830-246.40Q801.60-244.80 771.20-244.80L771.20-244.80Q764.80-244.80 755.20-245.20Q745.60-245.60 734.40-245.60L734.40-245.60Q727.20-227.20 719.60-208.40Q712-189.60 703.20-169.60L703.20-169.60Q669.60-90.40 621.20-41.20Q572.80 8 518 34.80Q463.20 61.60 409.20 71.20Q355.20 80.80 310.40 80.80ZM980 2.40L980 2.40Q950.40 2.40 936.40-15.60Q922.40-33.60 922.40-58.40L922.40-58.40Q922.40-84 929.60-111.20Q936.80-138.40 942.40-156.80L942.40-156.80Q955.20-201.60 974.80-252.40Q994.40-303.20 1018-352.40Q1041.60-401.60 1064.80-440.80L1064.80-440.80Q1083.20-472 1104.40-487.60Q1125.60-503.20 1141.60-503.20L1141.60-503.20Q1154.40-503.20 1162-494Q1169.60-484.80 1169.60-466.40L1169.60-466.40Q1169.60-453.60 1165.20-436Q1160.80-418.40 1150.40-396L1150.40-396Q1122.40-333.60 1083.60-271.20Q1044.80-208.80 985.60-154.40L985.60-154.40Q976-132 969.60-106.40Q963.20-80.80 963.20-64.80L963.20-64.80Q963.20-15.20 996.80-15.20L996.80-15.20Q1022.40-15.20 1053.60-52.40Q1084.80-89.60 1112.80-154.40L1112.80-154.40Q1116-154.40 1119.20-153.20Q1122.40-152 1122.40-147.20L1122.40-147.20Q1113.60-125.60 1100.40-99.60Q1087.20-73.60 1070-50.40Q1052.80-27.20 1030.40-12.40Q1008 2.40 980 2.40ZM992-180L992-180Q1020.80-209.60 1048-248.40Q1075.20-287.20 1098.80-329.20Q1122.40-371.20 1138.40-408.80L1138.40-408.80Q1144-420.80 1147.60-435.20Q1151.20-449.60 1151.20-459.20L1151.20-459.20Q1151.20-470.40 1145.60-470.40L1145.60-470.40Q1142.40-470.40 1136-464.40Q1129.60-458.40 1119.20-444L1119.20-444Q1104-424 1086-389.60Q1068-355.20 1049.60-316Q1031.20-276.80 1016-240.40Q1000.80-204 992-180ZM1286.40 2.40L1286.40 2.40Q1268.00 2.40 1254.00-8Q1240.00-18.40 1240.00-50.40L1240.00-50.40Q1240.00-64 1242.00-76Q1244.00-88 1247.20-101.60L1247.20-101.60Q1240.00-89.60 1227.20-72Q1214.40-54.40 1198.80-37.60Q1183.20-20.80 1166.80-9.60Q1150.40 1.60 1136.00 1.60L1136.00 1.60Q1115.20 1.60 1102.40-17.20Q1089.60-36 1089.60-66.40L1089.60-66.40Q1089.60-99.20 1104.80-136.80Q1120.00-174.40 1146.40-208.80Q1172.80-243.20 1207.20-264.80Q1241.60-286.40 1279.20-286.40L1279.20-286.40Q1297.60-286.40 1314.40-280.40Q1331.20-274.40 1344.00-260.80L1344.00-260.80Q1349.60-255.20 1349.60-248L1349.60-248Q1349.60-243.20 1345.60-240Q1341.60-236.80 1335.20-238.40L1335.20-238.40Q1326.40-266.40 1297.60-266.40L1297.60-266.40Q1284.00-266.40 1266.40-257.60L1266.40-257.60Q1244.80-246.40 1220.40-222Q1196.00-197.60 1174.80-166.80Q1153.60-136 1140.00-104.80Q1126.40-73.60 1126.40-48L1126.40-48Q1126.40-21.60 1146.40-21.60L1146.40-21.60Q1164.00-21.60 1182.80-38.40Q1201.60-55.20 1218.80-80.40Q1236.00-105.60 1250.40-130.40Q1264.80-155.20 1272.80-170.40L1272.80-170.40Q1284.80-192 1295.20-206.40Q1305.60-220.80 1324.80-220.80L1324.80-220.80Q1333.60-220.80 1342.40-218.40Q1351.20-216 1360.80-217.60L1360.80-217.60Q1336.80-193.60 1318.80-160.80Q1300.80-128 1291.20-96.40Q1281.60-64.80 1281.60-43.20L1281.60-43.20Q1281.60-19.20 1297.60-19.20L1297.60-19.20Q1310.40-19.20 1325.20-33.60Q1340.00-48 1354.00-70Q1368.00-92 1380.00-114.80Q1392.00-137.60 1399.20-154.40L1399.20-154.40Q1403.20-154.40 1406.00-153.60Q1408.80-152.80 1408.80-147.20L1408.80-147.20Q1408.00-144 1406.00-140.40Q1404.00-136.80 1400.00-128L1400.00-128Q1393.60-115.20 1382.40-93.60Q1371.20-72 1356.00-50Q1340.80-28 1323.20-12.80Q1305.60 2.40 1286.40 2.40ZM1425.60 5.60L1425.60 5.60Q1400.80 5.60 1391.20-7.20Q1381.60-20 1381.60-40L1381.60-40Q1381.60-60.80 1388.80-87.20Q1396.00-113.60 1408.00-146.40L1408.00-146.40Q1399.20-146.40 1399.20-154.40L1399.20-154.40Q1405.60-170.40 1413.20-190.80Q1420.80-211.20 1420.80-236.80L1420.80-236.80Q1420.80-249.60 1417.60-258.40Q1414.40-267.20 1408.00-268.80L1408.00-268.80Q1408.00-268.80 1416.40-270.40Q1424.80-272 1434.40-273.60Q1444.00-275.20 1447.20-275.20L1447.20-275.20Q1452.00-276 1456.00-276.40Q1460.00-276.80 1463.20-276.80L1463.20-276.80Q1471.20-276.80 1474.00-270.40Q1476.80-264 1476.00-242.40L1476.00-242.40Q1475.20-222.40 1468.00-194Q1460.80-165.60 1452.80-144.80L1452.80-144.80Q1442.40-117.60 1433.60-89.60Q1424.80-61.60 1424.80-43.20L1424.80-43.20Q1424.80-27.20 1433.60-22.40L1433.60-22.40Q1440.00-20 1444.80-20L1444.80-20Q1463.20-20 1480.80-37.60Q1498.40-55.20 1514.00-80.40Q1529.60-105.60 1540.00-128.80L1540.00-128.80Q1535.20-147.20 1535.20-172.80L1535.20-172.80Q1535.20-200 1541.60-228Q1548.00-256 1561.60-274.80Q1575.20-293.60 1596.80-293.60L1596.80-293.60Q1612.00-293.60 1612.00-280L1612.00-280Q1612.00-276.80 1604.40-252.80Q1596.80-228.80 1584.80-196Q1572.80-163.20 1559.20-132.80L1559.20-132.80Q1556.00-126.40 1553.60-120L1553.60-120Q1556.80-106.40 1565.60-98Q1574.40-89.60 1587.20-89.60L1587.20-89.60Q1603.20-89.60 1617.20-104.40Q1631.20-119.20 1646.40-154.40L1646.40-154.40Q1656.00-154.40 1656.00-147.20L1656.00-147.20Q1643.20-115.20 1625.20-96Q1607.20-76.80 1584.80-76.80L1584.80-76.80Q1557.60-76.80 1545.60-104.80L1545.60-104.80Q1532.00-76.80 1513.60-51.60Q1495.20-26.40 1473.20-10.40Q1451.20 5.60 1425.60 5.60ZM1668.80 0L1668.80 0Q1639.20 0 1627.20-17.20Q1615.20-34.40 1615.20-56.80L1615.20-56.80Q1615.20-68.80 1618.00-81.20Q1620.80-93.60 1624.80-104L1624.80-104L1678.40-240.80Q1680.80-247.20 1680.80-252L1680.80-252Q1680.80-260 1676.80-266Q1672.80-272 1671.20-274.40L1671.20-274.40L1715.20-276Q1727.20-276.80 1732.40-273.20Q1737.60-269.60 1737.60-264.80L1737.60-264.80Q1737.60-260 1732.00-247.20L1732.00-247.20Q1724.00-228 1710.40-199.20Q1696.80-170.40 1683.60-140Q1670.40-109.60 1661.20-83.20Q1652.00-56.80 1652.00-42.40L1652.00-42.40Q1652.00-32 1657.20-24.80Q1662.40-17.60 1675.20-17.60L1675.20-17.60Q1692.00-17.60 1708.40-30.80Q1724.80-44 1739.20-64.80Q1753.60-85.60 1766.00-109.60Q1778.40-133.60 1787.20-154.40L1787.20-154.40Q1796.80-154.40 1796.80-147.20L1796.80-147.20Q1788.80-127.20 1776.00-101.60Q1763.20-76 1746.80-53.20Q1730.40-30.40 1710.80-15.20Q1691.20 0 1668.80 0ZM1740.00-325.60L1740.00-325.60Q1729.60-325.60 1722.00-333.60Q1714.40-341.60 1714.40-352.80L1714.40-352.80Q1714.40-366.40 1725.60-377.20Q1736.80-388 1750.40-388L1750.40-388Q1761.60-388 1769.60-380.80Q1777.60-373.60 1777.60-362.40L1777.60-362.40Q1777.60-348 1766.40-336.80Q1755.20-325.60 1740.00-325.60ZM1960.80 2.40L1960.80 2.40Q1942.40 2.40 1928.40-8Q1914.40-18.40 1914.40-50.40L1914.40-50.40Q1914.40-64 1916.40-76Q1918.40-88 1921.60-101.60L1921.60-101.60Q1914.40-89.60 1901.60-72Q1888.80-54.40 1873.20-37.60Q1857.60-20.80 1841.20-9.60Q1824.80 1.60 1810.40 1.60L1810.40 1.60Q1789.60 1.60 1776.80-17.20Q1764.00-36 1764.00-66.40L1764.00-66.40Q1764.00-99.20 1779.20-136.80Q1794.40-174.40 1820.80-208.80Q1847.20-243.20 1881.60-264.80Q1916.00-286.40 1953.60-286.40L1953.60-286.40Q1972.00-286.40 1988.80-280.40Q2005.60-274.40 2018.40-260.80L2018.40-260.80Q2024.00-255.20 2024.00-248L2024.00-248Q2024.00-243.20 2020.00-240Q2016.00-236.80 2009.60-238.40L2009.60-238.40Q2000.80-266.40 1972.00-266.40L1972.00-266.40Q1958.40-266.40 1940.80-257.60L1940.80-257.60Q1919.20-246.40 1894.80-222Q1870.40-197.60 1849.20-166.80Q1828.00-136 1814.40-104.80Q1800.80-73.60 1800.80-48L1800.80-48Q1800.80-21.60 1820.80-21.60L1820.80-21.60Q1838.40-21.60 1857.20-38.40Q1876.00-55.20 1893.20-80.40Q1910.40-105.60 1924.80-130.40Q1939.20-155.20 1947.20-170.40L1947.20-170.40Q1959.20-192 1969.60-206.40Q1980.00-220.80 1999.20-220.80L1999.20-220.80Q2008.00-220.80 2016.80-218.40Q2025.60-216 2035.20-217.60L2035.20-217.60Q2011.20-193.60 1993.20-160.80Q1975.20-128 1965.60-96.40Q1956.00-64.80 1956.00-43.20L1956.00-43.20Q1956.00-19.20 1972.00-19.20L1972.00-19.20Q1984.80-19.20 1999.60-33.60Q2014.40-48 2028.40-70Q2042.40-92 2054.40-114.80Q2066.40-137.60 2073.60-154.40L2073.60-154.40Q2077.60-154.40 2080.40-153.60Q2083.20-152.80 2083.20-147.20L2083.20-147.20Q2082.40-144 2080.40-140.40Q2078.40-136.80 2074.40-128L2074.40-128Q2068-115.20 2056.80-93.60Q2045.60-72 2030.40-50Q2015.20-28 1997.60-12.80Q1980.00 2.40 1960.80 2.40Z"></path>
<path d="M 2039 435.2 C 2119.8 458.4, 2168.3 429.4, 2200.6 396.5 C 2168.3 449.7, 2119.8 472.6, 2039 443.9 Z"></path>
<g transform="translate(2131 194.1) rotate(-5 226.1 173.9) scale(1.581)">
<g fill="none" stroke="url(#foilIcon)" stroke-width="7" stroke-linecap="round"><path d="M146 102 C 196 86, 228 74, 246 68"></path><path d="M146 118 C 196 134, 228 146, 244 152"></path></g>
<g fill="none" stroke="url(#foilIcon)" stroke-width="6"><ellipse cx="262" cy="60" rx="22" ry="32" transform="rotate(-24 262 60)"></ellipse><ellipse cx="262" cy="160" rx="22" ry="32" transform="rotate(24 262 160)"></ellipse></g>
<path d="M282 186 C 297 192, 301 201, 294 211" fill="none" stroke="url(#foilIcon)" stroke-width="4.8" stroke-linecap="round"></path>
<path d="M142 100 C 104 91, 54 84, 4 80 C 54 95, 106 104, 148 106 Z" fill="url(#foilIcon)"></path>
<path d="M142 120 C 104 129, 54 136, 4 140 C 54 125, 106 116, 148 114 Z" fill="url(#foilIcon)"></path>
<circle cx="140" cy="110" r="6.6" fill="url(#foilIcon)"></circle>
<circle cx="140" cy="110" r="2.3" fill="#0A0A0A" opacity="0.55"></circle>
</g>
</g>
</svg>