<svg xmlns="http://www.w3.org/2000/svg" viewBox="0 0 512 512" width="512" height="512">
<title>Flavia — favicon</title>
<defs><linearGradient id="foil" gradientUnits="userSpaceOnUse" x1="61.44" y1="76.8" x2="471.04" y2="435.2"><stop offset="0" stop-color="#E9CD87"></stop><stop offset="0.5" stop-color="#C8A04B"></stop><stop offset="1" stop-color="#9A7330"></stop></linearGradient></defs>
<rect width="100%" height="100%" fill="#0A0A0A"></rect>
<path transform="translate(59.5 343.4)" d="M105.68 27.51L105.68 27.51Q75.72 27.51 53.52 18.25Q31.32 8.99 19.20-7.22Q7.08-23.42 7.08-44.13L7.08-44.13Q7.08-61.01 13.07-74.90Q19.07-88.80 29.01-98.06Q38.95-107.32 50.93-110.31L50.93-110.31Q52.84-110.59 52.84-108.95L52.84-108.95Q52.84-107.59 51.48-106.77L51.48-106.77Q37.32-98.33 29.83-82.53Q22.34-66.73 22.34-47.39L22.34-47.39Q22.34-26.42 33.23-11.30Q44.13 3.81 63.06 11.85Q81.99 19.88 105.68 19.88L105.68 19.88Q126.11 19.88 144.50 12.67Q162.88 5.45 178.41-7.08Q193.93-19.61 206.33-35.55Q218.72-51.48 227.16-68.91L227.16-68.91Q229.07-73.00 230.98-76.81Q232.88-80.62 234.79-84.44L234.79-84.44Q228.25-84.71 222.94-84.98Q217.63-85.25 215.72-85.25L215.72-85.25Q208.37-85.25 200.06-84.30Q191.76-83.35 184.54-80.62Q177.32-77.90 172.69-72.18L172.69-72.18Q170.78-70.27 170.37-69.18Q169.96-68.09 169.15-68.09L169.15-68.09Q168.06-68.09 167.24-69.87Q166.42-71.64 167.51-73.81L167.51-73.81Q173.78-87.71 185.22-92.75Q196.66-97.78 210.82-97.78L210.82-97.78Q213.82-97.78 222.13-96.83Q230.43-95.88 239.69-94.79L239.69-94.79Q251.68-119.03 261.62-138.64Q271.56-158.25 280.28-171.33L280.28-171.33Q260.67-177.86 238.60-182.90Q216.54-187.94 191.21-187.94L191.21-187.94Q172.42-187.94 157.16-182.77Q141.91-177.59 131.15-168.88Q120.39-160.16 114.67-149.54Q108.95-138.91 108.95-128.29L108.95-128.29Q108.95-116.31 113.58-109.22Q118.21-102.14 125.70-99.01Q133.19-95.88 141.09-95.88L141.09-95.88Q152.80-95.88 161.11-101.60Q169.42-107.32 174.32-114.54Q179.23-121.75 180.32-126.38L180.32-126.38Q181.40-130.74 183.58-130.74L183.58-130.74Q186.85-130.74 186.31-126.93L186.31-126.93Q184.67-114.94 177.86-106.23Q171.05-97.51 161.25-93.02Q151.44-88.52 140.55-88.52L140.55-88.52Q129.38-88.52 119.03-93.97Q108.68-99.42 102.14-109.77Q95.61-120.12 95.61-134.83L95.61-134.83Q95.61-146.81 100.92-158.66Q106.23-170.51 116.99-180.45Q127.75-190.39 144.36-196.39Q160.98-202.38 183.58-202.38L183.58-202.38Q199.65-202.38 216.54-198.70Q233.43-195.02 250.73-189.44Q268.02-183.86 284.91-177.86L284.91-177.86Q290.63-185.22 295.80-189.17Q300.98-193.12 306.15-193.12L306.15-193.12Q308.33-193.12 309.15-192.16Q309.97-191.21 309.97-190.39L309.97-190.39Q309.97-189.30 309.15-187.94Q308.33-186.58 306.15-186.58L306.15-186.58Q297.17-186.58 289.27-176.50L289.27-176.50Q308.88-169.96 326.99-164.93Q345.10-159.89 360.63-159.89L360.63-159.89Q372.62-159.89 376.43-162.47Q380.24-165.06 380.24-169.69L380.24-169.69Q380.24-172.69 382.15-172.69L382.15-172.69Q383.51-172.69 384.74-170.92Q385.96-169.15 385.96-166.70L385.96-166.70Q385.96-160.16 378.74-156.07Q371.53-151.99 358.72-151.99L358.72-151.99Q341.84-151.99 323.59-157.57Q305.34-163.16 284.91-169.96L284.91-169.96Q277.55-157.71 270.47-137.96Q263.39-118.21 253.86-93.43L253.86-93.43Q265.57-92.34 278.64-91.66Q291.72-90.97 299.89-90.97L299.89-90.97Q302.61-90.97 302.61-89.34L302.61-89.34Q302.61-87.16 296.35-85.53L296.35-85.53Q292.26-84.44 282.59-83.89Q272.92-83.35 262.57-83.35L262.57-83.35Q260.39-83.35 257.13-83.48Q253.86-83.62 250.04-83.62L250.04-83.62Q247.59-77.36 245.01-70.95Q242.42-64.55 239.42-57.74L239.42-57.74Q227.98-30.78 211.50-14.03Q195.02 2.72 176.37 11.85Q157.71 20.97 139.32 24.24Q120.94 27.51 105.68 27.51Z" fill="url(#foil)"></path>
</svg>